ffmpeg started on 2016-11-27 at 12:07:24
Report written to "Output/NVENCh264/results/ffmpeg/crowd_run_2160p50llhq10000k.log"
Command line:
Tools/ffmpeg/ffmpeg -benchmark -y -i Input/y4m/crowd_run_2160p50.y4m -c:v h264_nvenc -preset llhq -b:v 10000k -an Output/NVENCh264/encoded/crowd_run_2160p50llhq10000k.mkv
ffmpeg version N-82227-gdb23fde Copyright (c) 2000-2016 the FFmpeg developers
  built with gcc 5.4.0 (Ubuntu 5.4.0-6ubuntu1~16.04.2) 20160609
  configuration: --prefix=/home/jaroslav/ffmpeg_build --pkg-config-flags=--static --extra-cflags=-I/home/jaroslav/ffmpeg_build/include --extra-ldflags=-L/home/jaroslav/ffmpeg_build/lib --bindir=/home/jaroslav/bin --enable-gpl --enable-libass --enable-libfdk-aac --enable-libfreetype --enable-libmp3lame --enable-libopus --enable-libtheora --enable-libvorbis --enable-libvpx --enable-libx264 --enable-libx265 --enable-nvenc --enable-libmfx --enable-libxvid --enable-libgsm --enable-libopencore-amrnb --enable-version3 --enable-nonfree
  libavutil      55. 35.100 / 55. 35.100
  libavcodec     57. 66.101 / 57. 66.101
  libavformat    57. 57.100 / 57. 57.100
  libavdevice    57.  2.100 / 57.  2.100
  libavfilter     6. 66.100 /  6. 66.100
  libswscale      4.  3.100 /  4.  3.100
  libswresample   2.  4.100 /  2.  4.100
  libpostproc    54.  2.100 / 54.  2.100
Input #0, yuv4mpegpipe, from 'Input/y4m/crowd_run_2160p50.y4m':
  Duration: 00:00:10.00, start: 0.000000, bitrate: 4976642 kb/s
    Stream #0:0: Video: rawvideo (I420 / 0x30323449), yuv420p(progressive), 3840x2160, SAR 1:1 DAR 16:9, 50 fps, 50 tbr, 50 tbn, 50 tbc
[h264_nvenc @ 0x329c1c0] The variable bitrate rate-control requires the 'qmin' and/or 'qmax' option set.
Output #0, matroska, to 'Output/NVENCh264/encoded/crowd_run_2160p50llhq10000k.mkv':
  Metadata:
    encoder         : Lavf57.57.100
    Stream #0:0: Video: h264 (h264_nvenc) (Main) (H264 / 0x34363248), yuv420p, 3840x2160 [SAR 1:1 DAR 16:9], q=-1--1, 10000 kb/s, 50 fps, 1k tbn, 50 tbc
    Metadata:
      encoder         : Lavc57.66.101 h264_nvenc
    Side data:
      cpb: bitrate max/min/avg: 0/0/10000000 buffer size: 20000000 vbv_delay: -1
Stream mapping:
  Stream #0:0 -> #0:0 (rawvideo (native) -> h264 (h264_nvenc))
Press [q] to stop, [?] for help
frame=    9 fps=0.0 q=0.0 size=       0kB time=00:00:00.00 bitrate=N/A speed=   0x    frame=   20 fps= 18 q=0.0 size=       0kB time=00:00:00.00 bitrate=N/A speed=   0x    frame=   30 fps= 18 q=0.0 size=       0kB time=00:00:00.00 bitrate=N/A speed=   0x    frame=   45 fps= 20 q=43.0 size=       1kB time=00:00:00.28 bitrate=  21.3kbits/s speed=0.128x    frame=   63 fps= 23 q=43.0 size=       1kB time=00:00:00.64 bitrate=   9.3kbits/s speed=0.236x    frame=   81 fps= 25 q=43.0 size=       1kB time=00:00:01.00 bitrate=   6.0kbits/s speed=0.309x    frame=   99 fps= 26 q=42.0 size=       1kB time=00:00:01.36 bitrate=   4.4kbits/s speed=0.362x    frame=  106 fps= 21 q=43.0 size=       1kB time=00:00:01.50 bitrate=   4.0kbits/s speed=0.301x    frame=  107 fps= 13 q=42.0 size=       1kB time=00:00:01.52 bitrate=   3.9kbits/s speed=0.178x    frame=  108 fps= 11 q=42.0 size=       1kB time=00:00:01.54 bitrate=   3.9kbits/s speed=0.156x    frame=  126 fps= 12 q=43.0 size=       1kB time=00:00:01.90 bitrate=   3.1kbits/s speed=0.182x    frame=  144 fps= 13 q=43.0 size=       1kB time=00:00:02.26 bitrate=   2.6kbits/s speed=0.207x    frame=  161 fps= 14 q=43.0 size=       1kB time=00:00:02.60 bitrate=   2.3kbits/s speed=0.227x    frame=  178 fps= 15 q=43.0 size=       1kB time=00:00:02.94 bitrate=   2.0kbits/s speed=0.246x    frame=  195 fps= 16 q=43.0 size=       1kB time=00:00:03.28 bitrate=   1.8kbits/s speed=0.263x    frame=  212 fps= 16 q=43.0 size=       1kB time=00:00:03.62 bitrate=   1.7kbits/s speed=0.279x    frame=  229 fps= 17 q=44.0 size=       1kB time=00:00:03.96 bitrate=   1.5kbits/s speed=0.294x    frame=  244 fps= 17 q=43.0 size=    5125kB time=00:00:04.26 bitrate=9853.9kbits/s speed=0.303x    frame=  262 fps= 18 q=43.0 size=    5125kB time=00:00:04.62 bitrate=9086.2kbits/s speed=0.317x    frame=  280 fps= 19 q=43.0 size=    5125kB time=00:00:04.98 bitrate=8429.5kbits/s speed=0.33x    frame=  298 fps= 19 q=44.0 size=    6112kB time=00:00:05.34 bitrate=9374.7kbits/s speed=0.342x    frame=  316 fps= 20 q=43.0 size=    6112kB time=00:00:05.70 bitrate=8782.7kbits/s speed=0.353x    frame=  334 fps= 20 q=43.0 size=    6112kB time=00:00:06.06 bitrate=8261.0kbits/s speed=0.363x    frame=  352 fps= 20 q=43.0 size=    6112kB time=00:00:06.42 bitrate=7797.9kbits/s speed=0.373x    frame=  370 fps= 21 q=42.0 size=    6112kB time=00:00:06.78 bitrate=7383.9kbits/s speed=0.383x    frame=  388 fps= 21 q=43.0 size=    6112kB time=00:00:07.14 bitrate=7011.6kbits/s speed=0.392x    frame=  406 fps= 22 q=43.0 size=    6112kB time=00:00:07.50 bitrate=6675.1kbits/s speed= 0.4x    frame=  424 fps= 22 q=43.0 size=    6112kB time=00:00:07.86 bitrate=6369.4kbits/s speed=0.408x    frame=  442 fps= 22 q=43.0 size=    6112kB time=00:00:08.22 bitrate=6090.5kbits/s speed=0.416x    frame=  460 fps= 23 q=43.0 size=    6112kB time=00:00:08.58 bitrate=5835.0kbits/s speed=0.423x    frame=  478 fps= 23 q=43.0 size=    6112kB time=00:00:08.94 bitrate=5600.1kbits/s speed=0.43x    frame=  496 fps= 23 q=43.0 size=   11248kB time=00:00:09.30 bitrate=9907.3kbits/s speed=0.436x    frame=  500 fps= 23 q=43.0 Lsize=   12259kB time=00:00:09.98 bitrate=10062.0kbits/s speed=0.459x    
video:12255kB audio:0kB subtitle:0kB other streams:0kB global headers:0kB muxing overhead: 0.038833%
bench: utime=1.208s
bench: maxrss=1408556kB
